<?xml version="1.0" encoding="utf-8"?>
<svg width="600" height="600" viewBox="0 0 600 600" fill="none" xmlns="http://www.w3.org/2000/svg">
  <defs>
    <clipPath id="clip_path_1">
      <rect width="600" height="200" />
    </clipPath>
  </defs>
  <g>
    <rect width="600" height="600" fill="#FFFFFF" fill-rule="evenodd" fill-opacity="0" />
    <g clip-path="url(#clip_path_1)" transform="translate(0 213)">
      <g transform="translate(-453.495 -97.077)">
        <path d="M0 0L36.2362 0L72.0442 83.5935L107.775 0L143.828 0L83.5086 141.666L60.4497 141.666L0 0Z" fill="#FFFFFF" transform="translate(453.496 155.411)" />
        <path d="M33.1803 0L68.7215 0L113.147 133.594L157.976 0L193.495 0L225.643 191.536L190.368 191.536L169.819 70.573L129.106 191.536L96.9579 191.536L56.6063 70.573L35.566 191.536L0 191.536L33.1803 0Z" fill="#FFFFFF" transform="translate(607.42 105.541)" />
        <g transform="translate(0 0)">
          <path d="M4.82025 58.3302L40.387 58.3302L40.387 199.988L4.82025 199.988L4.82025 58.3302ZM22.6034 0C28.8392 0 34.1865 2.25874 38.6463 6.77099C43.1067 11.2852 45.3382 16.7535 45.3382 23.1759C45.3382 29.513 43.1295 34.9163 38.712 39.3857C34.2946 43.8576 29.0121 46.0909 22.8643 46.0909C16.542 46.0909 11.1497 43.8127 6.68866 39.2556C2.22888 34.6984 0 29.1651 0 22.6549C0 16.4056 2.20612 11.0673 6.6236 6.64027C11.0416 2.21385 16.3663 0 22.6034 0C22.6034 0 22.6034 0 22.6034 0Z" fill="#FFFFFF" transform="translate(849.479 97.077)" />
        </g>
        <g>
          <path d="M5.08136 141.666L46.38 141.666L74.396 103.056L102.269 141.666L142.874 141.666L94.7523 74.9998L149.17 0L107.871 0L74.1556 46.4676L40.6133 0L0 0L53.7994 74.5237L5.08136 141.666Z" fill="#FFFFFF" transform="translate(904.325 155.411)" />
        </g>
      </g>
    </g>
  </g>
</svg>